<?xml version="1.0" encoding="iso-8859-1"?>
<!-- Generator: Adobe Illustrator 19.0.0, SVG Export Plug-In . SVG Version: 6.00 Build 0)  -->
<svg version="1.1" id="Capa_1" xmlns="http://www.w3.org/2000/svg" xmlns:xlink="http://www.w3.org/1999/xlink" x="0px" y="0px"
	 viewBox="0 0 512.002 512.002" style="enable-background:new 0 0 512.002 512.002;" xml:space="preserve">
<g>
	<g>
		<path d="M139.581,0H91.448C76.18,0,65.516,14.058,65.516,34.187v387.19c0,0.062,0.01,0.123,0.011,0.185
			c0.005,0.271,0.02,0.542,0.047,0.813c0.01,0.095,0.019,0.19,0.032,0.285c0.036,0.286,0.087,0.569,0.148,0.852
			c0.016,0.07,0.027,0.141,0.045,0.211c0.174,0.722,0.425,1.429,0.766,2.11l39.994,80.616c1.687,3.402,5.157,5.554,8.954,5.554
			s7.267-2.152,8.954-5.554l40.001-80.629c0.001-0.002,0.002-0.004,0.003-0.006c0.169-0.34,0.315-0.688,0.443-1.039
			c0.011-0.031,0.019-0.063,0.029-0.095c0.108-0.31,0.201-0.623,0.277-0.939c0.022-0.091,0.039-0.184,0.059-0.276
			c0.056-0.259,0.102-0.518,0.137-0.779c0.015-0.115,0.027-0.23,0.038-0.345c0.023-0.247,0.037-0.493,0.043-0.739
			c0.001-0.076,0.013-0.15,0.013-0.226V34.187C165.51,14.058,154.847,0,139.581,0z M85.508,34.187c0-7.827,2.665-14.195,5.94-14.195
			h48.133c3.274,0,5.937,6.368,5.937,14.195v27.815H85.508V34.187z M115.513,479.512L94.5,437.158
			c2.244-0.326,4.54-0.85,6.872-1.592c4.859-1.547,9.916-4.129,14.14-7.495c4.223,3.365,9.279,5.947,14.139,7.495
			c2.333,0.743,4.63,1.267,6.874,1.592L115.513,479.512z M145.517,416.838c-1.871,0.827-4.199,0.796-6.092,0.534
			c-7.224-1.005-12.84-5.507-13.917-7.428V169.013c0.001-5.521-4.474-9.996-9.995-9.996c-5.52,0-9.996,4.475-9.996,9.996v240.922
			c-1.061,1.914-6.677,6.43-13.918,7.438c-1.891,0.262-4.219,0.292-6.091-0.534V121.995h60.01V416.838z M145.518,102.003h-60.01
			V81.992h60.01V102.003z"/>
	</g>
</g>
<g>
	<g>
		<path d="M115.513,129.738c-5.52,0-9.996,4.475-9.996,9.996v0.602c0,5.521,4.476,9.996,9.996,9.996c5.52,0,9.996-4.475,9.996-9.996
			v-0.602C125.509,134.213,121.032,129.738,115.513,129.738z"/>
	</g>
</g>
<g>
	<g>
		<path d="M294.076,0.106h-93.642c-5.52,0-9.996,4.475-9.996,9.996V501.9c0,5.521,4.476,9.996,9.996,9.996h93.642
			c5.521,0,9.996-4.475,9.996-9.996V10.102C304.072,4.581,299.596,0.106,294.076,0.106z M284.08,40.757h-25.848
			c-5.52,0-9.996,4.475-9.996,9.996s4.476,9.996,9.996,9.996h25.848v20.655h-15.096c-5.52,0-9.996,4.475-9.996,9.996
			c0,5.521,4.476,9.996,9.996,9.996h15.096v20.656h-15.096c-5.52,0-9.996,4.475-9.996,9.996s4.476,9.996,9.996,9.996h15.096V162.7
			h-25.848c-5.52,0-9.996,4.475-9.996,9.996s4.476,9.996,9.996,9.996h25.848v20.657h-15.096c-5.52,0-9.996,4.475-9.996,9.996
			s4.476,9.996,9.996,9.996h15.096v20.656h-15.096c-5.52,0-9.996,4.475-9.996,9.996c0,5.521,4.476,9.996,9.996,9.996h15.096v20.655
			h-25.848c-5.52,0-9.996,4.475-9.996,9.996c0,5.521,4.476,9.996,9.996,9.996h25.848v20.657h-15.096
			c-5.52,0-9.996,4.475-9.996,9.996c0,5.521,4.476,9.996,9.996,9.996h15.096v20.657h-15.096c-5.52,0-9.996,4.475-9.996,9.996
			s4.476,9.996,9.996,9.996h15.096v20.656h-25.848c-5.52,0-9.996,4.475-9.996,9.996c0,5.521,4.476,9.996,9.996,9.996h25.848v20.655
			h-15.096c-5.52,0-9.996,4.475-9.996,9.996s4.476,9.996,9.996,9.996h15.096v24.675h-73.651V20.098h73.651V40.757z"/>
	</g>
</g>
<g>
	<g>
		<path d="M436.49,86.647h-8.74c-2.474-10.579-8.492-18.347-16.576-21.442V10.102c0-5.521-4.476-9.996-9.996-9.996H356.82
			c-5.52,0-9.996,4.475-9.996,9.996v55.07C336.02,69.245,329,81.58,329,97.911V349.49c0,5.729,0.077,11.199,0.226,16.446
			c-0.006,0.142-0.022,0.281-0.022,0.425c0,0.382,0.026,0.757,0.068,1.128c2.252,72.297,18.417,100.297,40.181,137.978l0.888,1.537
			c1.785,3.093,5.086,4.998,8.656,4.998c3.57,0,6.871-1.905,8.656-4.998l0.887-1.535c23.486-40.661,40.456-70.039,40.456-155.977
			V242.833h7.493c5.52,0,9.996-4.475,9.996-9.996V96.643C446.486,91.122,442.009,86.647,436.49,86.647z M366.815,20.098h24.366
			v43.626h-24.366V20.098z M348.992,97.911c0-7.829,2.665-14.197,5.94-14.197h48.132c1.354,0,2.611,1.093,3.617,2.932h-5.173v0.001
			c-5.521,0-9.996,4.475-9.996,9.996v19.992h-42.519V97.911z M378.998,481.883c-15.83-28.272-26.689-53.482-29.363-105.527h19.638
			h0.001h39.088C405.687,428.4,394.827,453.614,378.998,481.883z M409.005,349.49c0,2.338-0.014,4.627-0.039,6.875H379.27
			l0.003-43.396c0-5.52-4.475-9.996-9.995-9.996c-0.001,0-0.001,0-0.001,0c-5.52,0-9.996,4.475-9.996,9.996l-0.003,43.397H349.03
			c-0.025-2.248-0.038-4.537-0.038-6.875V136.626h42.519v96.21c0,5.521,4.475,9.996,9.996,9.996h7.498V349.49z M426.494,222.842
			h-14.991V106.639h14.991V222.842z"/>
	</g>
</g>
<g>
	<g>
		<path d="M369.274,273.695c-5.52,0-9.996,4.475-9.996,9.996v0.604c0,5.521,4.476,9.996,9.996,9.996s9.996-4.475,9.996-9.996v-0.604
			C379.269,278.17,374.793,273.695,369.274,273.695z"/>
	</g>
</g>
<g>
</g>
<g>
</g>
<g>
</g>
<g>
</g>
<g>
</g>
<g>
</g>
<g>
</g>
<g>
</g>
<g>
</g>
<g>
</g>
<g>
</g>
<g>
</g>
<g>
</g>
<g>
</g>
<g>
</g>
</svg>
