<?xml version="1.0" encoding="iso-8859-1"?>
<!-- Generator: Adobe Illustrator 19.0.0, SVG Export Plug-In . SVG Version: 6.00 Build 0)  -->
<svg version="1.1" id="Capa_1" xmlns="http://www.w3.org/2000/svg" xmlns:xlink="http://www.w3.org/1999/xlink" x="0px" y="0px"
	 viewBox="0 0 496 496" style="enable-background:new 0 0 496 496;" xml:space="preserve">
<g>
	<g>
		<g>
			<rect x="416" y="40" width="16" height="128"/>
			<path d="M320,168c0-18.184-12.192-34.912-32.84-45.368l-15.896-87.408L232,9.048V21.2l-31.656,39.568l-7.768,62.144
				C172.152,133.376,160,149.912,160,168c0,14.656,7.72,27.784,20.44,37.664C169.832,228.784,144,290.568,144,344
				c0,47.712,16.688,102.512,26.64,130.928c4.408,12.6,16.376,21.072,29.784,21.072C217.832,496,232,481.832,232,464.424v-4.528
				c0-3.392-0.544-6.752-1.624-9.992C226.64,438.696,208,380.952,208,344c0-58.496,22.04-106.576,28.896-120.104
				c1.04,0.024,2.056,0.104,3.104,0.104c1.056,0,2.072-0.08,3.112-0.104C249.968,237.4,272,285.344,272,344
				c0,36.952-18.64,94.696-22.376,105.904c-1.08,3.232-1.624,6.592-1.624,9.984v4.528C248,481.832,262.168,496,279.576,496
				c13.4,0,25.376-8.472,29.784-21.072C319.312,446.512,336,391.712,336,344c0-53.432-25.832-115.216-36.44-138.336
				C312.28,195.784,320,182.656,320,168z M248.008,38.952l8.728,5.824l15.304,84.032l0.424,4.672l0.672,0.296l-14.968,18.712
				c-2.704-3.16-6.168-5.592-10.16-7.016V38.952z M240,160c4.408,0,8,3.592,8,8s-3.592,8-8,8s-8-3.592-8-8S235.592,160,240,160z
				 M215.656,67.232L232,46.808v98.672c-3.36,1.2-6.408,3.04-8.888,5.496l-14.832-24.72L215.656,67.232z M192,344
				c0,38.432,17.76,94.656,23.2,110.96c0.528,1.6,0.8,3.256,0.8,4.928v4.528c0,8.592-6.992,15.584-15.576,15.584
				c-6.616,0-12.512-4.168-14.68-10.36C176.128,442.184,160,389.352,160,344c0-12.936,1.744-26.544,4.424-40H184v-16h-15.952
				c1.376-5.432,2.84-10.792,4.408-16H192v-16h-14.344c1.936-5.632,3.888-11.016,5.8-16H200v-16h-10.096
				c1.608-3.8,3.024-7,4.304-9.84c7.648,3.68,16.304,6.408,25.656,8.048C210.544,241.832,192,287.896,192,344z M240,208
				c-34.688,0-64-18.32-64-40c0-11.16,7.744-21.824,21.016-29.432l19.256,32.096C217.616,182.632,227.68,192,240,192
				c12.136,0,22.088-9.08,23.672-20.792l23.816-29.768C297.976,148.752,304,158.184,304,168C304,189.68,274.688,208,240,208z
				 M302.344,256H288v16h19.544c1.568,5.208,3.032,10.568,4.408,16H296v16h19.576c2.68,13.456,4.424,27.064,4.424,40
				c0,45.352-16.128,98.184-25.736,125.64c-2.168,6.192-8.072,10.36-14.688,10.36c-8.584,0-15.576-6.992-15.576-15.576v-4.528
				c0-1.672,0.272-3.336,0.8-4.928C270.24,438.656,288,382.432,288,344c0-56.104-18.544-102.168-27.864-121.792
				c9.352-1.64,18.016-4.368,25.656-8.048c1.28,2.84,2.696,6.04,4.304,9.84H280v16h16.544
				C298.456,244.984,300.408,250.368,302.344,256z"/>
			<path d="M464,200V50.512C464,22.664,438.88,0,408,0s-56,22.664-56,50.512V200c-17.648,0-32,14.352-32,32s14.352,32,32,32h32v232
				h48V264h32c17.648,0,32-14.352,32-32S481.648,200,464,200z M368,50.512C368,31.488,385.944,16,408,16
				c22.056,0,40,15.488,40,34.512V200h-16v-16h-16v16h-16V40h-16v160h-16V50.512z M416,480h-16V264h16V480z M464,248h-32h-48h-32
				c-8.824,0-16-7.176-16-16c0-8.824,7.176-16,16-16h8h8h80h8h8c8.824,0,16,7.176,16,16C480,240.824,472.824,248,464,248z"/>
			<path d="M120,382.08V149.208c24.8-14.296,40-40.376,40-69.208c0-33.832-21.416-64.152-53.304-75.432L96.032,0.792L96,72H64V0.784
				L53.336,4.552C21.432,15.832,0,46.152,0,80c0,28.832,15.2,54.912,40,69.208V382.08C24.896,394.192,16,412.552,16,432
				c0,33.12,25.856,61.12,58.704,63.736C76.448,495.912,78.208,496,80,496s3.552-0.088,5.136-0.248
				C118.144,493.12,144,465.12,144,432C144,412.552,135.104,394.192,120,382.08z M83.704,479.816
				c-2.44,0.24-4.808,0.256-7.568-0.016C51.384,477.824,32,456.832,32,432c0-15.648,7.696-30.36,20.584-39.36L56,390.248V139.472
				l-4.432-2.208C29.632,126.344,16,104.4,16,80c0-23.112,12.48-44.16,32-55.448V72c0,8.824,7.176,16,16,16h32
				c8.824,0,16-7.176,16-16l0.024-47.432C131.528,35.856,144,56.904,144,80c0,24.4-13.632,46.344-35.568,57.264L104,139.472v250.776
				l3.416,2.384C120.304,401.64,128,416.352,128,432C128,456.832,108.616,477.824,83.704,479.816z"/>
			<path d="M80,400c-17.648,0-32,14.352-32,32s14.352,32,32,32s32-14.352,32-32S97.648,400,80,400z M80,448c-8.824,0-16-7.176-16-16
				c0-8.824,7.176-16,16-16s16,7.176,16,16C96,440.824,88.824,448,80,448z"/>
		</g>
	</g>
</g>
<g>
</g>
<g>
</g>
<g>
</g>
<g>
</g>
<g>
</g>
<g>
</g>
<g>
</g>
<g>
</g>
<g>
</g>
<g>
</g>
<g>
</g>
<g>
</g>
<g>
</g>
<g>
</g>
<g>
</g>
</svg>
