<svg xmlns="http://www.w3.org/2000/svg" xmlns:xlink="http://www.w3.org/1999/xlink" viewBox="0 0 536 175"><defs><style>.cls-1{fill:url(#Безымянный_градиент_7);}.cls-2{fill:#fff;}</style><linearGradient id="Безымянный_градиент_7" x1="89.87" y1="202.36" x2="523.42" y2="-107.85" gradientUnits="userSpaceOnUse"><stop offset="0" stop-color="#e51f1f"/><stop offset="1" stop-color="#fa2929"/></linearGradient></defs><title>Ресурс 1</title><g id="Слой_2" data-name="Слой 2"><g id="Слой_1-2" data-name="Слой 1"><polygon class="cls-1" points="500.79 0 0 0 0 175 500.79 175 536 87 500.79 0"/><path class="cls-2" d="M197.73,105.65h6.67v15H133.9v-15h6.67L163,54.89h12.22Zm-40.23,0h23.31L169.15,79.33Z"/><path class="cls-2" d="M264.74,120.69,244.41,79.33l-16.33,41.36H211.16l29.14-65.8h12.22l29.14,65.8Z"/><path class="cls-2" d="M349.64,120.69H330.81L311,94.35l-7.42,7.58v18.75h-15V54.89h15V80.83l25.38-25.94h20.64l-28,28.59Z"/></g></g></svg>
